<?xml version="1.0" encoding="UTF-8" standalone="no"?>
<svg
   xmlns:dc="http://purl.org/dc/elements/1.1/"
   xmlns:cc="http://creativecommons.org/ns#"
   xmlns:rdf="http://www.w3.org/1999/02/22-rdf-syntax-ns#"
   xmlns:svg="http://www.w3.org/2000/svg"
   xmlns="http://www.w3.org/2000/svg"
   version="1.1"
   id="svg4208"
   viewBox="0 0 172.20589 49.720971"
   height="14.032363mm"
   width="48.60033mm">
  <defs
     id="defs4210" />
  <metadata
     id="metadata4213">
    <rdf:RDF>
      <cc:Work
         rdf:about="">
        <dc:format>image/svg+xml</dc:format>
        <dc:type
           rdf:resource="http://purl.org/dc/dcmitype/StillImage" />
        <dc:title></dc:title>
      </cc:Work>
    </rdf:RDF>
  </metadata>
  <g
     transform="translate(-371.03991,-173.216)"
     id="layer1">
    <path
       d="m 394.18153,222.08465 2.05984,-9.80217 -11.20864,0 -4.68796,10.65449 -9.30486,0 0,-0.85232 21.94826,-48.86865 31.93313,0 0,8.94974 -12.91117,0 -2.41512,11.36478 10.99345,0 0,8.9498 -12.91117,0 -2.41512,11.50686 11.8458,0 0,8.94979 -22.92644,0 z m -5.24214,-18.75198 9.21986,0 4.47479,-21.16693 -4.38979,0 z"
       style="font-style:italic;font-variant:normal;font-weight:bold;font-stretch:normal;font-size:medium;line-height:1.25;font-family:'Space Mono';-inkscape-font-specification:'Space Mono Bold Italic';letter-spacing:0px;word-spacing:0px;fill:#ffffff;fill-opacity:1;stroke:none;stroke-width:1.05708873"
       id="path4493-5-9-6-5-9-3" />
    <path
       d="m 431.56309,222.93697 -9.37592,0 10.5834,-49.72097 9.37609,0 -4.33284,20.38556 2.59352,0 16.05282,-20.38556 10.93869,0 0,0.85236 -18.89396,23.5819 0,1.27855 11.93299,23.58198 0,0.42618 -10.37039,0 -10.37039,-20.38563 -3.87222,0 z"
       style="font-style:italic;font-variant:normal;font-weight:bold;font-stretch:normal;font-size:medium;line-height:1.25;font-family:'Space Mono';-inkscape-font-specification:'Space Mono Bold Italic';letter-spacing:0px;word-spacing:0px;fill:#ffffff;fill-opacity:1;stroke:none;stroke-width:1.05708873"
       id="path4495-4-9-7-6-7-1" />
    <path
       d="m 470.55529,222.93697 -9.37609,0 10.58357,-49.72097 9.37592,0 -4.33284,20.38556 2.59369,0 16.05266,-20.38556 10.93869,0 0,0.85236 -18.89396,23.5819 0,1.27855 11.93299,23.58198 0,0.42618 -10.37039,0 -10.3704,-20.38563 -3.87205,0 z"
       style="font-style:italic;font-variant:normal;font-weight:bold;font-stretch:normal;font-size:medium;line-height:1.25;font-family:'Space Mono';-inkscape-font-specification:'Space Mono Bold Italic';letter-spacing:0px;word-spacing:0px;fill:#ffffff;fill-opacity:1;stroke:none;stroke-width:1.05708873"
       id="path4497-2-9-5-2-3-9" />
    <path
       d="m 509.96712,173.216 33.27869,0 0,8.94974 -11.50681,0 -6.74796,31.82144 11.50698,0 0,8.94979 -33.27869,0 0,-8.94979 12.39579,0 6.74779,-31.82144 -12.39579,0 z"
       style="font-style:italic;font-variant:normal;font-weight:bold;font-stretch:normal;font-size:medium;line-height:1.25;font-family:'Space Mono';-inkscape-font-specification:'Space Mono Bold Italic';letter-spacing:0px;word-spacing:0px;fill:#ffffff;fill-opacity:1;stroke:none;stroke-width:1.05708873"
       id="path4499-4-4-3-9-6-4" />
  </g>
</svg>
